<?xml version="1.0" encoding="utf-8"?>
<!-- Generator: Adobe Illustrator 16.0.0, SVG Export Plug-In . SVG Version: 6.00 Build 0)  -->
<!DOCTYPE svg PUBLIC "-//W3C//DTD SVG 1.1//EN" "http://www.w3.org/Graphics/SVG/1.1/DTD/svg11.dtd">
<svg version="1.1" xmlns="http://www.w3.org/2000/svg" xmlns:xlink="http://www.w3.org/1999/xlink" x="0px" y="0px" width="1024px"
	 height="1024px" viewBox="0 0 1024 1024" enable-background="new 0 0 1024 1024" xml:space="preserve">
<g id="Layer_2">
	<circle fill="#D16A28" stroke="#010101" stroke-miterlimit="10" cx="512.125" cy="512" r="512"/>
</g>
<g id="Layer_1">
	<g>
		<g>
			<circle fill="#272930" cx="512.125" cy="512" r="493"/>
			<g>
				<g>
					<g>
						<path fill="#F05123" d="M479.31,224.332c-34.035,0-61.625-27.59-61.625-61.625s27.59-61.625,61.625-61.625"/>
						<path fill="#F05123" d="M356.06,224.332c-34.035,0-61.625-27.59-61.625-61.625s27.59-61.625,61.625-61.625"/>
						<path fill="#F05123" d="M602.56,224.332c-34.036,0-61.625-27.59-61.625-61.625s27.589-61.625,61.625-61.625"/>
						<path fill="#F05123" d="M479.31,347.582c-34.035,0-61.625-27.59-61.625-61.625s27.59-61.625,61.625-61.625"/>
						<path fill="#F05123" d="M479.31,470.832c-34.035,0-61.625-27.59-61.625-61.625s27.59-61.625,61.625-61.625"/>
					</g>
					<g>
						<path fill="#F37264" d="M479.31,224.332c34.035,0,61.625-27.59,61.625-61.625s-27.59-61.625-61.625-61.625"/>
						<path fill="#F37264" d="M602.56,224.332c34.036,0,61.625-27.59,61.625-61.625s-27.589-61.625-61.625-61.625"/>
						<path fill="#F37264" d="M356.06,224.332c34.035,0,61.625-27.59,61.625-61.625s-27.59-61.625-61.625-61.625"/>
						<path fill="#F37264" d="M479.31,347.582c34.035,0,61.625-27.59,61.625-61.625s-27.59-61.625-61.625-61.625"/>
						<path fill="#F37264" d="M479.31,470.832c34.035,0,61.625-27.59,61.625-61.625s-27.59-61.625-61.625-61.625"/>
					</g>
				</g>
				<g>
					<path fill="none" stroke="#4A97D2" stroke-width="40" stroke-miterlimit="10" d="M664.185,440.02
						c-51.052,0-92.438-41.386-92.438-92.438c0-51.051,41.386-92.438,92.438-92.438"/>
					<path fill="none" stroke="#70CDDD" stroke-width="40" stroke-miterlimit="10" d="M664.185,440.019
						c51.052,0,92.438-41.386,92.438-92.438c0-51.051-41.386-92.438-92.438-92.438"/>
				</g>
			</g>
			<g>
				<g>
					<path fill="#71C173" d="M187.823,752.128c1.726,0.985,3.467,1.941,5.237,2.85C191.29,754.069,189.549,753.129,187.823,752.128z
						"/>
					<path fill="#71C173" d="M198.453,757.566c1.818,0.832,3.667,1.602,5.533,2.342C202.12,759.184,200.271,758.398,198.453,757.566
						z"/>
					<path fill="#71C173" d="M310.795,645.208v61.641H249.17c-34.032,0-61.625-27.593-61.625-61.641
						c0-34.016,27.593-61.625,61.625-61.625C283.204,583.583,310.795,611.192,310.795,645.208z"/>
					<path fill="#71C173" d="M336.324,558.069c-6.271-6.269-13.219-11.877-20.723-16.683c-1.664-1.063-3.358-2.097-5.083-3.098
						c-0.863-0.492-1.727-0.971-2.604-1.447c-1.742-0.956-3.512-1.865-5.315-2.729c-3.589-1.725-7.272-3.297-11.047-4.667
						c-1.895-0.693-3.806-1.339-5.731-1.941c-11.584-3.605-23.894-5.547-36.652-5.547c-12.755,0-25.065,1.941-36.651,5.547
						c-1.926,0.603-3.835,1.248-5.731,1.941c-3.774,1.37-7.457,2.942-11.045,4.667c-1.803,0.863-3.575,1.772-5.316,2.729
						c-0.876,0.477-1.741,0.955-2.603,1.447c-1.726,1.001-3.42,2.034-5.084,3.098c-7.503,4.806-14.452,10.414-20.721,16.683
						c-22.309,22.311-36.098,53.123-36.098,87.139c0,42.538,21.553,80.052,54.338,102.205c1.648,1.094,3.313,2.173,5.007,3.206
						c0.847,0.507,1.693,1.016,2.557,1.509c1.726,0.985,3.467,1.941,5.237,2.85c1.773,0.894,3.574,1.771,5.392,2.589
						c1.818,0.832,3.667,1.602,5.533,2.342c1.863,0.739,3.744,1.433,5.653,2.079c0.955,0.309,1.926,0.633,2.88,0.925
						c1.926,0.601,3.883,1.155,5.854,1.664c0.985,0.246,1.972,0.492,2.958,0.724c1.987,0.462,4.006,0.878,6.024,1.232
						c7.086,1.265,14.375,1.926,21.814,1.926h123.25v-123.25C372.42,611.192,358.633,580.38,336.324,558.069z M187.545,645.208
						c0-34.016,27.593-61.625,61.625-61.625c34.034,0,61.625,27.609,61.625,61.625v61.641H249.17
						C215.138,706.849,187.545,679.256,187.545,645.208z"/>
					<path fill="#71C173" d="M310.795,645.208v61.641H249.17c-34.032,0-61.625-27.593-61.625-61.641
						c0-34.016,27.593-61.625,61.625-61.625C283.204,583.583,310.795,611.192,310.795,645.208z"/>
					<path fill="#272930" d="M310.795,645.208v61.641H249.17c-34.032,0-61.625-27.593-61.625-61.641
						c0-34.016,27.593-61.625,61.625-61.625C283.204,583.583,310.795,611.192,310.795,645.208z"/>
				</g>
				<path fill="#6952A2" d="M648.778,521.958v246.5h-123.25c-68.081,0-123.25-55.185-123.25-123.25
					c0-68.063,55.169-123.25,123.25-123.25H648.778z"/>
				<path fill="#F8991D" d="M929.143,552.771c0,8.505-4.59,16.208-12.031,21.784c-7.442,5.577-17.702,9.028-29.057,9.028h-51.35
					v143.802c0,22.694-13.789,41.073-30.813,41.073c-8.504,0-16.207-4.591-21.785-12.033c-5.575-7.424-9.027-17.7-9.027-29.04
					V583.583h-51.35c-22.692,0-41.088-13.788-41.088-30.813c0-8.504,4.592-16.207,12.033-21.783
					c7.439-5.576,17.7-9.029,29.055-9.029h164.324C910.748,521.958,929.143,535.747,929.143,552.771z"/>
			</g>
		</g>
	</g>
</g>
</svg>
